<svg width="2000" height="218" viewBox="0 0 2000 218" fill="none" xmlns="http://www.w3.org/2000/svg">
<path d="M1995 212.247H1953.34L1796.18 67.8741V212.247H1752.45V6H1793.29L1952.1 149.961V6H1995V212.247Z" fill="black"/>
<path d="M1641.99 212.247H1594.55V6H1641.99V212.247Z" fill="black"/>
<path d="M1497.67 212.247H1283.17V40.6495C1283.17 17.5498 1294.99 6 1318.64 6H1495.6V41.062H1331.43V87.2614H1423.42V122.323H1331.43V173.473H1497.67V212.247Z" fill="black"/>
<path d="M1210.57 43.5362H1119.82V212.246H1071.56V43.5362H981.222V6.82422H1210.57V43.5362Z" fill="black"/>
<path d="M560.195 212.246H499.971L423.659 134.697H379.522V212.246H332.498V6.82422H508.633C539.433 6.82422 554.832 18.7866 554.832 42.7112V98.8105C554.832 116.135 546.858 128.098 530.908 134.697H481.408L560.195 212.246ZM508.633 83.1357V58.386C508.633 47.6612 504.096 42.2987 495.021 42.2987H379.522V99.6355H495.021C504.096 99.6355 508.633 94.1355 508.633 83.1357Z" fill="black"/>
<path d="M221.56 171.823C221.56 198.772 201.347 212.247 160.923 212.247H5V6H173.71C204.51 6 219.91 19.3373 219.91 46.0119V71.1741C219.91 91.5238 208.085 103.074 184.435 105.824C209.185 109.124 221.56 122.323 221.56 145.423V171.823ZM175.773 73.2366V50.5494C175.773 43.3995 168.348 39.8245 153.498 39.8245H49.9619V88.0864H153.498C168.348 88.0864 175.773 83.1364 175.773 73.2366ZM177.01 160.685V142.123C177.01 134.148 175.085 129.061 171.235 126.861C167.66 124.661 161.748 123.561 153.498 123.561H49.9619V175.123H153.498C161.748 175.123 167.66 174.023 171.235 171.823C175.085 169.348 177.01 165.635 177.01 160.685Z" fill="black"/>
<path fill-rule="evenodd" clip-rule="evenodd" d="M900.815 202.347C908.24 195.747 911.953 182.822 911.953 163.572V55.4985C911.953 36.2488 908.24 23.324 900.815 16.7241C893.666 10.1242 880.328 6.82422 860.803 6.82422H709.83C690.306 6.82422 676.831 10.1242 669.406 16.7241C662.256 23.324 658.681 36.2488 658.681 55.4985V113.864C659.287 113.615 659.893 113.363 660.498 113.112C664.758 111.342 669.019 109.572 673.432 108.536C685.938 105.569 697.455 109.001 707.867 116.214C709.262 117.235 710.578 118.275 711.918 119.336C712.869 120.088 713.833 120.851 714.848 121.624C708.565 127.499 704.086 134.014 701.701 141.983C712.637 128.197 726.074 118.424 743.99 116.563C762.138 114.702 776.913 122.38 790.292 133.897C790.094 133.567 789.904 133.228 789.713 132.887C789.399 132.328 789.083 131.764 788.721 131.221C784.242 124.183 778.251 118.832 771.155 114.643C770.457 114.236 769.7 113.189 769.7 112.375C769.581 109.828 769.55 107.272 769.519 104.713C769.473 101.019 769.428 97.3219 769.119 93.6446C768.618 88.0544 767.818 82.4941 767.02 76.9422C766.705 74.753 766.39 72.5651 766.094 70.3773C765.978 69.5629 766.036 68.6904 766.385 67.9342C766.763 67.0617 767.214 66.2328 767.664 65.4039C768.115 64.575 768.566 63.7461 768.944 62.8735C769.7 61.1285 769.119 59.6743 767.548 59.0926C765.919 58.5109 764.523 59.3252 763.942 61.1866C763.922 61.2836 763.896 61.3805 763.871 61.4775C763.819 61.6714 763.767 61.8653 763.767 62.0592C762.72 70.1446 756.322 73.5183 750.098 76.0778C743.641 78.7535 734.392 73.9255 731.251 67.7015C730.786 66.7708 729.855 66.0146 728.924 65.4329C727.587 64.5057 726.202 63.6345 724.817 62.7629C722.465 61.2832 720.112 59.8026 717.989 58.0455C714.499 55.0789 712.87 50.949 713.8 46.2955C715.138 39.6061 717.64 33.3239 721.711 27.8561C723.282 25.7039 725.667 23.9007 728.11 22.7954C734.101 20.0034 740.267 17.6185 746.433 15.2917C751.203 13.4885 756.031 14.0702 760.277 16.6878C769.991 22.5628 779.415 28.845 785.929 38.5591L785.931 38.5613C790.642 45.6571 795.353 52.7529 800.122 59.7324C801.186 61.2908 802.253 62.8477 803.319 64.4049C811.529 76.3896 819.749 88.388 826.647 101.207C836.245 119.122 841.655 138.144 841.538 158.561C841.538 161.702 840.899 164.959 840.084 167.984C838.223 174.848 833.22 178.571 826.705 180.432C822.75 181.537 818.678 182.352 814.606 182.991C809.953 183.748 805.707 185.493 801.635 187.819C790.816 193.985 779.589 199.104 767.49 202.42C751.377 206.84 735.439 205.968 719.501 201.547C718.803 201.373 718.105 201.198 717.407 200.965C714.149 199.918 711.59 200.965 709.554 203.583C707.156 206.701 704.536 209.556 701.563 212.03C704.187 212.174 706.942 212.246 709.83 212.246H860.803C880.328 212.246 893.666 208.946 900.815 202.347ZM828.683 126.219C832.813 136.689 833.628 143.67 832.348 157.514C831.958 155.586 831.597 153.665 831.238 151.749C830.577 148.231 829.919 144.729 829.09 141.226C826.473 130.174 821.587 120.111 814.141 111.386C813.269 110.339 813.152 109.408 813.152 108.07C813.152 106.042 812.937 104.045 812.731 102.123C812.653 101.399 812.576 100.685 812.512 99.985C816.41 102.137 823.855 114.062 828.683 126.219ZM759.172 182.759C749.225 185.842 736.893 182.991 731.6 175.895C748.12 181.13 762.604 178.222 775.517 167.344C775.226 172.056 767.955 180.025 759.172 182.759Z" fill="black"/>
</svg>
