<svg width="2000" height="518" viewBox="0 0 2000 518" fill="none" xmlns="http://www.w3.org/2000/svg">
<g clip-path="url(#clip0_271_623)">
<path d="M1844.69 98.8594C1869.16 98.8594 1890.82 102.814 1909.65 110.722C1928.85 118.254 1945.05 129.175 1958.23 143.485C1971.78 157.419 1982.14 173.988 1989.3 193.194C1996.45 212.024 2000.03 232.924 2000.03 255.896C2000.03 284.516 1994 309.936 1981.95 332.155C1970.28 353.997 1954.09 371.131 1933.37 383.559C1912.66 395.986 1888.56 402.2 1861.07 402.2C1849.39 402.2 1838.28 400.693 1827.74 397.681C1817.57 394.668 1808.16 390.337 1799.5 384.688C1791.21 379.04 1784.24 372.073 1778.6 363.788H1776.9V518H1689.34V255.896C1689.34 223.886 1695.75 196.207 1708.55 172.859C1721.35 149.51 1739.43 131.434 1762.78 118.63C1786.13 105.45 1813.43 98.8594 1844.69 98.8594ZM1844.69 174.553C1831.13 174.553 1819.27 177.943 1809.1 184.721C1799.31 191.123 1791.78 200.161 1786.5 211.835C1781.23 223.133 1778.6 235.937 1778.6 250.247C1778.6 264.557 1781.23 277.361 1786.5 288.659C1791.78 299.957 1799.31 308.995 1809.1 315.773C1819.27 322.175 1831.13 325.376 1844.69 325.376C1858.24 325.376 1869.92 322.175 1879.71 315.773C1889.5 308.995 1897.03 299.957 1902.3 288.659C1907.95 277.361 1910.78 264.557 1910.78 250.247C1910.78 235.937 1907.95 223.133 1902.3 211.835C1897.03 200.161 1889.5 191.123 1879.71 184.721C1869.92 177.943 1858.24 174.553 1844.69 174.553Z" fill="white"/>
<path d="M1458.35 402.194C1425.58 402.194 1396.4 395.604 1370.79 382.423C1345.56 369.243 1325.79 350.414 1311.48 325.936C1297.17 301.457 1290.01 272.272 1290.01 238.379V0H1383.78V243.463C1383.78 258.15 1386.8 271.519 1392.82 283.57C1398.85 295.244 1407.51 304.658 1418.81 311.814C1430.1 318.592 1443.28 321.981 1458.35 321.981C1473.79 321.981 1486.97 318.592 1497.89 311.814C1509.19 304.658 1517.85 295.244 1523.87 283.57C1529.9 271.519 1532.91 258.15 1532.91 243.463V102.311H1626.68V238.379C1626.68 272.272 1619.34 301.457 1604.65 325.936C1590.34 350.414 1570.57 369.243 1545.34 382.423C1520.11 395.604 1491.11 402.194 1458.35 402.194Z" fill="white"/>
<path d="M1154.04 395.421C1127.3 395.421 1106.4 387.889 1091.34 372.825C1076.27 357.385 1068.74 336.673 1068.74 310.689V35.0273H1156.86V305.605C1156.86 310.124 1158.37 314.078 1161.38 317.467C1164.77 320.48 1168.73 321.986 1173.25 321.986H1236.51V395.421H1154.04ZM1021.29 177.377V105.637H1236.51V177.377H1021.29Z" fill="white"/>
<path d="M757.14 395.416V325.936H896.665C900.431 325.936 903.82 325.183 906.833 323.676C909.846 321.793 912.293 319.346 914.176 316.333C916.059 313.32 917.001 310.119 917.001 306.73C917.001 302.964 916.059 299.575 914.176 296.562C912.293 293.549 909.846 291.29 906.833 289.784C903.82 287.901 900.431 286.959 896.665 286.959H845.826C826.997 286.959 809.862 283.947 794.422 277.921C779.358 271.519 767.308 261.728 758.27 248.547C749.608 234.99 745.277 217.479 745.277 196.014C745.277 179.444 749.231 164.38 757.14 150.823C765.425 137.266 776.534 126.345 790.468 118.06C804.778 109.775 820.406 105.633 837.353 105.633H976.878V175.678H850.91C845.638 175.678 841.119 177.373 837.353 180.762C833.963 184.151 832.269 188.294 832.269 193.189C832.269 198.461 833.963 202.98 837.353 206.746C841.119 210.136 845.638 211.83 850.91 211.83H900.619C921.708 211.83 939.784 215.031 954.848 221.433C970.288 227.459 982.15 237.25 990.435 250.807C999.097 264.364 1003.43 281.875 1003.43 303.341C1003.43 320.287 999.097 335.727 990.435 349.661C982.15 363.595 970.853 374.704 956.542 382.989C942.609 391.274 926.792 395.416 909.092 395.416H757.14Z" fill="white"/>
<path d="M585.807 395.421C553.044 395.421 524.235 389.396 499.381 377.345C474.526 364.918 455.132 347.971 441.198 326.506C427.641 304.664 420.862 279.433 420.862 250.812C420.862 219.179 427.453 192.065 440.633 169.469C453.814 146.874 471.325 129.551 493.167 117.5C515.385 105.073 539.864 98.8594 566.601 98.8594C597.105 98.8594 622.524 105.261 642.86 118.065C663.572 130.869 679.201 148.381 689.745 170.599C700.289 192.441 705.562 217.484 705.562 245.728C705.562 250.624 705.185 256.461 704.432 263.239C704.055 269.641 703.49 274.725 702.737 278.491H512.938C515.197 288.282 519.766 300.161 526.168 306.94C532.57 313.718 537.205 318.432 546.996 321.821C556.788 324.834 567.709 326.34 579.759 326.34L760.021 325.933V395.421H585.807ZM510.678 223.698H620.83C620.077 217.672 618.947 211.835 617.44 206.187C615.934 200.538 613.486 195.642 610.097 191.5C607.084 186.981 603.507 183.215 599.364 180.202C595.222 176.813 590.326 174.177 584.677 172.294C579.405 170.411 573.38 169.469 566.601 169.469C557.94 169.469 550.22 170.976 543.441 173.988C536.663 177.001 531.014 181.144 526.495 186.416C521.976 191.311 518.398 197.148 515.762 203.927C513.503 210.329 511.808 216.919 510.678 223.698Z" fill="white"/>
<path d="M90.8149 279.678H0V0H267.623C358.92 0 379.065 73.9378 377.726 110.907C377.726 214.42 284.5 231.725 237.887 227.439C257.818 292.376 339.418 307.539 377.726 307.003V395.407C161.056 395.407 126.712 222.885 136.624 136.624H267.623C275.66 136.624 286.911 128.588 286.911 110.907C286.911 96.7621 274.052 91.6186 267.623 90.8149H90.8149V279.678Z" fill="white"/>
</g>
<defs>
<clipPath id="clip0_271_623">
<rect width="2000" height="518" fill="white"/>
</clipPath>
</defs>
</svg>
