<svg xmlns="http://www.w3.org/2000/svg" xmlns:xlink="http://www.w3.org/1999/xlink" width="600" zoomAndPan="magnify" viewBox="0 0 450 225" height="300" preserveAspectRatio="xMidYMid meet" version="1.0"><defs><g/><clipPath id="cea1095568"><rect x="0" width="375" y="0" height="93"/></clipPath></defs><g transform="matrix(1, 0, 0, 1, 37, 66)"><g clip-path="url(#cea1095568)"><g fill="#1eb7d2" fill-opacity="1"><g transform="translate(1.597699, 69.554745)"><g><path d="M 21.984375 0.59375 C 19.628906 0.59375 17.332031 0.269531 15.09375 -0.375 C 12.851562 -1.019531 10.800781 -1.988281 8.9375 -3.28125 C 7.082031 -4.570312 5.515625 -6.191406 4.234375 -8.140625 C 2.960938 -10.085938 2.113281 -12.363281 1.6875 -14.96875 L 11.140625 -17.359375 C 11.367188 -15.160156 12 -13.359375 13.03125 -11.953125 C 14.070312 -10.554688 15.378906 -9.519531 16.953125 -8.84375 C 18.523438 -8.175781 20.25 -7.84375 22.125 -7.84375 C 24.03125 -7.84375 25.625 -8.140625 26.90625 -8.734375 C 28.195312 -9.335938 29.179688 -10.148438 29.859375 -11.171875 C 30.535156 -12.203125 30.875 -13.34375 30.875 -14.59375 C 30.875 -15.96875 30.507812 -17.140625 29.78125 -18.109375 C 29.050781 -19.085938 28.078125 -19.929688 26.859375 -20.640625 C 25.648438 -21.359375 24.285156 -22.019531 22.765625 -22.625 C 21.242188 -23.238281 19.671875 -23.863281 18.046875 -24.5 C 16.421875 -25.144531 14.84375 -25.875 13.3125 -26.6875 C 11.789062 -27.5 10.421875 -28.460938 9.203125 -29.578125 C 7.992188 -30.691406 7.023438 -32.03125 6.296875 -33.59375 C 5.578125 -35.15625 5.21875 -37.007812 5.21875 -39.15625 C 5.21875 -41.507812 5.65625 -43.59375 6.53125 -45.40625 C 7.40625 -47.21875 8.609375 -48.75 10.140625 -50 C 11.679688 -51.25 13.445312 -52.191406 15.4375 -52.828125 C 17.425781 -53.460938 19.53125 -53.78125 21.75 -53.78125 C 25.03125 -53.78125 28.082031 -53.035156 30.90625 -51.546875 C 33.726562 -50.066406 36.050781 -47.710938 37.875 -44.484375 L 29.96875 -39.640625 C 29.039062 -41.441406 27.828125 -42.835938 26.328125 -43.828125 C 24.828125 -44.816406 23.191406 -45.3125 21.421875 -45.3125 C 20.171875 -45.3125 19.035156 -45.070312 18.015625 -44.59375 C 17.003906 -44.113281 16.203125 -43.445312 15.609375 -42.59375 C 15.023438 -41.75 14.734375 -40.765625 14.734375 -39.640625 C 14.734375 -38.390625 15.097656 -37.320312 15.828125 -36.4375 C 16.554688 -35.550781 17.523438 -34.773438 18.734375 -34.109375 C 19.941406 -33.453125 21.304688 -32.828125 22.828125 -32.234375 C 24.359375 -31.648438 25.9375 -31.035156 27.5625 -30.390625 C 29.1875 -29.753906 30.757812 -29.023438 32.28125 -28.203125 C 33.8125 -27.378906 35.179688 -26.394531 36.390625 -25.25 C 37.609375 -24.113281 38.578125 -22.742188 39.296875 -21.140625 C 40.023438 -19.546875 40.390625 -17.648438 40.390625 -15.453125 C 40.390625 -12.953125 39.90625 -10.707031 38.9375 -8.71875 C 37.976562 -6.726562 36.65625 -5.039062 34.96875 -3.65625 C 33.28125 -2.269531 31.320312 -1.210938 29.09375 -0.484375 C 26.875 0.234375 24.503906 0.59375 21.984375 0.59375 Z M 21.984375 0.59375 "/></g></g></g><g fill="#1eb7d2" fill-opacity="1"><g transform="translate(44.241732, 69.554745)"><g><path d="M 18.75 0.75 C 16.300781 0.75 14.195312 0.300781 12.4375 -0.59375 C 10.675781 -1.5 9.320312 -2.78125 8.375 -4.4375 C 7.4375 -6.101562 6.96875 -8.078125 6.96875 -10.359375 L 6.96875 -29.8125 L 0.9375 -29.8125 L 0.9375 -37.46875 L 7.125 -37.46875 L 7.125 -46.765625 L 16.046875 -53.296875 L 16.046875 -37.46875 L 25.5 -37.46875 L 25.5 -29.8125 L 16.046875 -29.8125 L 16.046875 -11.96875 C 16.046875 -10.164062 16.453125 -8.9375 17.265625 -8.28125 C 18.078125 -7.632812 19.085938 -7.3125 20.296875 -7.3125 C 21.242188 -7.3125 22.191406 -7.460938 23.140625 -7.765625 C 24.085938 -8.066406 24.875 -8.363281 25.5 -8.65625 L 25.5 -0.375 C 24.800781 -0.125 23.828125 0.125 22.578125 0.375 C 21.328125 0.625 20.050781 0.75 18.75 0.75 Z M 18.75 0.75 "/></g></g></g><g fill="#1eb7d2" fill-opacity="1"><g transform="translate(72.521064, 69.554745)"><g><path d="M 21.109375 0.75 C 18.210938 0.75 15.585938 0.234375 13.234375 -0.796875 C 10.890625 -1.835938 8.875 -3.257812 7.1875 -5.0625 C 5.5 -6.863281 4.195312 -8.945312 3.28125 -11.3125 C 2.363281 -13.675781 1.90625 -16.179688 1.90625 -18.828125 C 1.90625 -21.472656 2.363281 -23.960938 3.28125 -26.296875 C 4.195312 -28.640625 5.5 -30.707031 7.1875 -32.5 C 8.875 -34.289062 10.890625 -35.695312 13.234375 -36.71875 C 15.585938 -37.738281 18.210938 -38.25 21.109375 -38.25 C 24.015625 -38.25 26.640625 -37.738281 28.984375 -36.71875 C 31.335938 -35.695312 33.359375 -34.289062 35.046875 -32.5 C 36.734375 -30.707031 38.03125 -28.640625 38.9375 -26.296875 C 39.851562 -23.960938 40.3125 -21.472656 40.3125 -18.828125 C 40.3125 -16.179688 39.851562 -13.675781 38.9375 -11.3125 C 38.03125 -8.945312 36.734375 -6.863281 35.046875 -5.0625 C 33.359375 -3.257812 31.335938 -1.835938 28.984375 -0.796875 C 26.640625 0.234375 24.015625 0.75 21.109375 0.75 Z M 21.109375 -7.125 C 22.835938 -7.125 24.320312 -7.441406 25.5625 -8.078125 C 26.800781 -8.710938 27.800781 -9.570312 28.5625 -10.65625 C 29.320312 -11.75 29.882812 -13.003906 30.25 -14.421875 C 30.613281 -15.835938 30.796875 -17.304688 30.796875 -18.828125 C 30.796875 -20.378906 30.613281 -21.84375 30.25 -23.21875 C 29.882812 -24.59375 29.320312 -25.816406 28.5625 -26.890625 C 27.800781 -27.960938 26.800781 -28.804688 25.5625 -29.421875 C 24.320312 -30.035156 22.835938 -30.34375 21.109375 -30.34375 C 18.816406 -30.34375 16.957031 -29.8125 15.53125 -28.75 C 14.101562 -27.6875 13.0625 -26.28125 12.40625 -24.53125 C 11.757812 -22.78125 11.4375 -20.878906 11.4375 -18.828125 C 11.4375 -17.304688 11.617188 -15.835938 11.984375 -14.421875 C 12.347656 -13.003906 12.914062 -11.75 13.6875 -10.65625 C 14.46875 -9.570312 15.46875 -8.710938 16.6875 -8.078125 C 17.914062 -7.441406 19.390625 -7.125 21.109375 -7.125 Z M 21.109375 -7.125 "/></g></g></g><g fill="#1eb7d2" fill-opacity="1"><g transform="translate(114.827545, 69.554745)"><g><path d="M 5.4375 0 L 5.4375 -37.46875 L 14.359375 -37.46875 L 14.359375 -31.171875 C 14.910156 -32.691406 15.703125 -33.976562 16.734375 -35.03125 C 17.773438 -36.082031 18.960938 -36.878906 20.296875 -37.421875 C 21.640625 -37.972656 23.015625 -38.25 24.421875 -38.25 C 25.671875 -38.25 26.898438 -38.03125 28.109375 -37.59375 C 29.328125 -37.15625 30.382812 -36.476562 31.28125 -35.5625 L 27.109375 -28.046875 C 25.835938 -28.898438 24.476562 -29.328125 23.03125 -29.328125 C 21.957031 -29.328125 20.898438 -29.070312 19.859375 -28.5625 C 18.816406 -28.050781 17.878906 -27.25 17.046875 -26.15625 C 16.210938 -25.070312 15.546875 -23.671875 15.046875 -21.953125 C 14.546875 -20.242188 14.296875 -18.203125 14.296875 -15.828125 L 14.296875 0 Z M 5.4375 0 "/></g></g></g><g fill="#1eb7d2" fill-opacity="1"><g transform="translate(145.394727, 69.554745)"><g><path d="M 21.046875 0.75 C 17.816406 0.75 15.015625 0.222656 12.640625 -0.828125 C 10.265625 -1.878906 8.285156 -3.316406 6.703125 -5.140625 C 5.128906 -6.960938 3.960938 -9.03125 3.203125 -11.34375 C 2.441406 -13.65625 2.0625 -16.078125 2.0625 -18.609375 C 2.0625 -21.054688 2.421875 -23.441406 3.140625 -25.765625 C 3.867188 -28.085938 4.984375 -30.191406 6.484375 -32.078125 C 7.984375 -33.972656 9.890625 -35.472656 12.203125 -36.578125 C 14.515625 -37.691406 17.257812 -38.25 20.4375 -38.25 C 23.0625 -38.25 25.34375 -37.867188 27.28125 -37.109375 C 29.21875 -36.347656 30.863281 -35.316406 32.21875 -34.015625 C 33.570312 -32.710938 34.660156 -31.242188 35.484375 -29.609375 C 36.304688 -27.972656 36.898438 -26.269531 37.265625 -24.5 C 37.628906 -22.738281 37.8125 -21.023438 37.8125 -19.359375 C 37.8125 -18.578125 37.78125 -17.847656 37.71875 -17.171875 C 37.65625 -16.503906 37.570312 -16.03125 37.46875 -15.75 L 11.734375 -15.75 C 12.015625 -14.125 12.507812 -12.691406 13.21875 -11.453125 C 13.9375 -10.222656 14.941406 -9.257812 16.234375 -8.5625 C 17.535156 -7.875 19.160156 -7.53125 21.109375 -7.53125 C 22.816406 -7.53125 24.421875 -7.832031 25.921875 -8.4375 C 27.421875 -9.039062 28.820312 -10.066406 30.125 -11.515625 L 36.421875 -6 C 34.367188 -3.726562 32.078125 -2.035156 29.546875 -0.921875 C 27.023438 0.191406 24.191406 0.75 21.046875 0.75 Z M 11.734375 -22.359375 L 28.8125 -22.359375 C 28.507812 -25.023438 27.617188 -27.054688 26.140625 -28.453125 C 24.660156 -29.859375 22.734375 -30.5625 20.359375 -30.5625 C 18.566406 -30.5625 17.085938 -30.203125 15.921875 -29.484375 C 14.753906 -28.773438 13.835938 -27.800781 13.171875 -26.5625 C 12.515625 -25.332031 12.035156 -23.929688 11.734375 -22.359375 Z M 11.734375 -22.359375 "/></g></g></g><g fill="#1eb7d2" fill-opacity="1"><g transform="translate(185.413358, 69.554745)"><g><path d="M 7.609375 0 L 7.609375 -29.8125 L 0.75 -29.8125 L 0.75 -37.46875 L 7.6875 -37.46875 L 7.6875 -42.5 C 7.6875 -44.320312 8.007812 -45.929688 8.65625 -47.328125 C 9.3125 -48.734375 10.195312 -49.914062 11.3125 -50.875 C 12.425781 -51.84375 13.703125 -52.566406 15.140625 -53.046875 C 16.578125 -53.535156 18.082031 -53.78125 19.65625 -53.78125 C 20.90625 -53.78125 22.097656 -53.632812 23.234375 -53.34375 C 24.367188 -53.0625 25.4375 -52.695312 26.4375 -52.25 L 23.4375 -44.703125 C 23.007812 -44.984375 22.539062 -45.207031 22.03125 -45.375 C 21.519531 -45.550781 21.015625 -45.640625 20.515625 -45.640625 C 19.585938 -45.640625 18.78125 -45.328125 18.09375 -44.703125 C 17.40625 -44.078125 17.0625 -43.03125 17.0625 -41.5625 L 17.0625 -37.46875 L 25.796875 -37.46875 L 25.796875 -29.8125 L 17.0625 -29.8125 L 17.0625 0 Z M 7.609375 0 "/></g></g></g><g fill="#1eb7d2" fill-opacity="1"><g transform="translate(211.217311, 69.554745)"><g><path d="M 5.4375 0 L 5.4375 -37.46875 L 14.359375 -37.46875 L 14.359375 -31.171875 C 14.910156 -32.691406 15.703125 -33.976562 16.734375 -35.03125 C 17.773438 -36.082031 18.960938 -36.878906 20.296875 -37.421875 C 21.640625 -37.972656 23.015625 -38.25 24.421875 -38.25 C 25.671875 -38.25 26.898438 -38.03125 28.109375 -37.59375 C 29.328125 -37.15625 30.382812 -36.476562 31.28125 -35.5625 L 27.109375 -28.046875 C 25.835938 -28.898438 24.476562 -29.328125 23.03125 -29.328125 C 21.957031 -29.328125 20.898438 -29.070312 19.859375 -28.5625 C 18.816406 -28.050781 17.878906 -27.25 17.046875 -26.15625 C 16.210938 -25.070312 15.546875 -23.671875 15.046875 -21.953125 C 14.546875 -20.242188 14.296875 -18.203125 14.296875 -15.828125 L 14.296875 0 Z M 5.4375 0 "/></g></g></g><g fill="#1eb7d2" fill-opacity="1"><g transform="translate(241.784494, 69.554745)"><g><path d="M 21.109375 0.75 C 18.210938 0.75 15.585938 0.234375 13.234375 -0.796875 C 10.890625 -1.835938 8.875 -3.257812 7.1875 -5.0625 C 5.5 -6.863281 4.195312 -8.945312 3.28125 -11.3125 C 2.363281 -13.675781 1.90625 -16.179688 1.90625 -18.828125 C 1.90625 -21.472656 2.363281 -23.960938 3.28125 -26.296875 C 4.195312 -28.640625 5.5 -30.707031 7.1875 -32.5 C 8.875 -34.289062 10.890625 -35.695312 13.234375 -36.71875 C 15.585938 -37.738281 18.210938 -38.25 21.109375 -38.25 C 24.015625 -38.25 26.640625 -37.738281 28.984375 -36.71875 C 31.335938 -35.695312 33.359375 -34.289062 35.046875 -32.5 C 36.734375 -30.707031 38.03125 -28.640625 38.9375 -26.296875 C 39.851562 -23.960938 40.3125 -21.472656 40.3125 -18.828125 C 40.3125 -16.179688 39.851562 -13.675781 38.9375 -11.3125 C 38.03125 -8.945312 36.734375 -6.863281 35.046875 -5.0625 C 33.359375 -3.257812 31.335938 -1.835938 28.984375 -0.796875 C 26.640625 0.234375 24.015625 0.75 21.109375 0.75 Z M 21.109375 -7.125 C 22.835938 -7.125 24.320312 -7.441406 25.5625 -8.078125 C 26.800781 -8.710938 27.800781 -9.570312 28.5625 -10.65625 C 29.320312 -11.75 29.882812 -13.003906 30.25 -14.421875 C 30.613281 -15.835938 30.796875 -17.304688 30.796875 -18.828125 C 30.796875 -20.378906 30.613281 -21.84375 30.25 -23.21875 C 29.882812 -24.59375 29.320312 -25.816406 28.5625 -26.890625 C 27.800781 -27.960938 26.800781 -28.804688 25.5625 -29.421875 C 24.320312 -30.035156 22.835938 -30.34375 21.109375 -30.34375 C 18.816406 -30.34375 16.957031 -29.8125 15.53125 -28.75 C 14.101562 -27.6875 13.0625 -26.28125 12.40625 -24.53125 C 11.757812 -22.78125 11.4375 -20.878906 11.4375 -18.828125 C 11.4375 -17.304688 11.617188 -15.835938 11.984375 -14.421875 C 12.347656 -13.003906 12.914062 -11.75 13.6875 -10.65625 C 14.46875 -9.570312 15.46875 -8.710938 16.6875 -8.078125 C 17.914062 -7.441406 19.390625 -7.125 21.109375 -7.125 Z M 21.109375 -7.125 "/></g></g></g><g fill="#1eb7d2" fill-opacity="1"><g transform="translate(284.090975, 69.554745)"><g><path d="M 5.4375 0 L 5.4375 -37.46875 L 14.515625 -37.46875 L 14.515625 -33.125 C 15.515625 -34.34375 16.640625 -35.328125 17.890625 -36.078125 C 19.140625 -36.828125 20.425781 -37.375 21.75 -37.71875 C 23.070312 -38.070312 24.347656 -38.25 25.578125 -38.25 C 28.023438 -38.25 30.113281 -37.804688 31.84375 -36.921875 C 33.570312 -36.035156 34.972656 -34.835938 36.046875 -33.328125 C 37.117188 -31.816406 37.90625 -30.117188 38.40625 -28.234375 C 38.90625 -26.359375 39.15625 -24.445312 39.15625 -22.5 L 39.15625 0 L 30.125 0 L 30.125 -21.34375 C 30.125 -22.988281 29.851562 -24.445312 29.3125 -25.71875 C 28.769531 -27 27.96875 -28 26.90625 -28.71875 C 25.84375 -29.445312 24.523438 -29.8125 22.953125 -29.8125 C 20.378906 -29.8125 18.328125 -29.078125 16.796875 -27.609375 C 15.273438 -26.148438 14.515625 -23.785156 14.515625 -20.515625 L 14.515625 0 Z M 5.4375 0 "/></g></g></g><g fill="#1eb7d2" fill-opacity="1"><g transform="translate(327.635132, 69.554745)"><g><path d="M 18.75 0.75 C 16.300781 0.75 14.195312 0.300781 12.4375 -0.59375 C 10.675781 -1.5 9.320312 -2.78125 8.375 -4.4375 C 7.4375 -6.101562 6.96875 -8.078125 6.96875 -10.359375 L 6.96875 -29.8125 L 0.9375 -29.8125 L 0.9375 -37.46875 L 7.125 -37.46875 L 7.125 -46.765625 L 16.046875 -53.296875 L 16.046875 -37.46875 L 25.5 -37.46875 L 25.5 -29.8125 L 16.046875 -29.8125 L 16.046875 -11.96875 C 16.046875 -10.164062 16.453125 -8.9375 17.265625 -8.28125 C 18.078125 -7.632812 19.085938 -7.3125 20.296875 -7.3125 C 21.242188 -7.3125 22.191406 -7.460938 23.140625 -7.765625 C 24.085938 -8.066406 24.875 -8.363281 25.5 -8.65625 L 25.5 -0.375 C 24.800781 -0.125 23.828125 0.125 22.578125 0.375 C 21.328125 0.625 20.050781 0.75 18.75 0.75 Z M 18.75 0.75 "/></g></g></g><g fill="#1eb7d2" fill-opacity="1"><g transform="translate(355.926207, 69.554745)"><g/></g></g></g></g></svg>